<?xml version="1.0" encoding="UTF-8"?>
<svg width="20px" height="19px" viewBox="0 0 20 19" version="1.1" xmlns="http://www.w3.org/2000/svg" xmlns:xlink="http://www.w3.org/1999/xlink">
    <!-- Generator: Sketch 42 (36781) - http://www.bohemiancoding.com/sketch -->
    <title>Icon/Notification/Danger</title>
    <desc>Created with Sketch.</desc>
    <defs></defs>
    <g id="Symbols" stroke="none" stroke-width="1" fill="none" fill-rule="evenodd">
        <g id="Icon/Notification/Danger">
            <g id="Icon-Warning">
                <path d="M19.8331888,16.9947934 L11.1178169,0.664504132 C10.9005029,0.256239669 10.4746351,0 10.0111227,0 L10.009883,0 C9.54637065,0 9.12178387,0.255 8.90318883,0.663264463 L0.148891308,16.9935124 C-0.0596210886,17.3854545 -0.0483400969,17.8552479 0.177775606,18.2321074 C0.405130978,18.6102066 0.814676432,18.8426033 1.25558552,18.8426033 L18.723974,18.8426033 C19.166164,18.8426033 19.5743872,18.6114463 19.8017839,18.2321074 C20.0291392,17.8540083 20.0404616,17.3842149 19.8331888,16.9947934 L19.8331888,16.9947934 Z" id="Shape" fill="#CC0000"></path>
                <path d="M11.2673211,11.3256612 C11.2673211,12.0203306 10.7033128,12.5818182 10.011164,12.5818182 C9.31773428,12.5818182 8.75500701,12.0202893 8.75500701,11.3256612 L8.75500701,6.30095041 C8.75500701,5.60752066 9.31777561,5.04479339 10.011164,5.04479339 C10.7033128,5.04479339 11.2673211,5.60756198 11.2673211,6.30095041 L11.2673211,11.3256612 L11.2673211,11.3256612 Z" id="Path" fill="#FFFFFF"></path>
                <path d="M10.009883,16.3302479 C9.31645329,16.3302479 8.75372602,15.7674793 8.75372602,15.0740909 C8.75372602,14.3807025 9.31649461,13.8179339 10.009883,13.8179339 C10.7020318,13.8179339 11.2660401,14.3807025 11.2660401,15.0740909 C11.2660401,15.7674793 10.7033128,16.3302479 10.009883,16.3302479 L10.009883,16.3302479 Z" id="Path" fill="#FFFFFF"></path>
            </g>
        </g>
    </g>
</svg>