<?xml version="1.0" encoding="UTF-8"?>
<svg width="22px" height="22px" viewBox="0 0 22 22" version="1.1" xmlns="http://www.w3.org/2000/svg" xmlns:xlink="http://www.w3.org/1999/xlink">
    <!-- Generator: Sketch 42 (36781) - http://www.bohemiancoding.com/sketch -->
    <title>Icon/Notification/Info</title>
    <desc>Created with Sketch.</desc>
    <defs></defs>
    <g id="Symbols" stroke="none" stroke-width="1" fill="none" fill-rule="evenodd">
        <g id="Icon/Notification/Info">
            <g id="icon-info">
                <path d="M0,10.8303666 C0,16.810976 4.84812631,21.6599998 10.8299999,21.6599998 C16.8118735,21.6599998 21.6599998,16.810976 21.6599998,10.8303666 C21.6592665,4.84682373 16.8111402,0 10.8299999,0 C4.84812631,0 0,4.84682373 0,10.8303666 Z" id="Shape" stroke="#1E6BB8" fill="#1E6BB8"></path>
                <path d="M11.816,17.855 C11.454,17.981 11.033,18.044 10.554,18.044 C9.818,18.044 9.245,17.864 8.837,17.505 C8.429,17.146 8.226,16.691 8.226,16.138 C8.226,15.923 8.241,15.703 8.271,15.479 C8.302,15.255 8.351,15.003 8.418,14.72 L9.179,12.032 C9.246,11.774 9.304,11.529 9.35,11.301 C9.396,11.071 9.418,10.86 9.418,10.668 C9.418,10.326 9.347,10.086 9.206,9.951 C9.063,9.816 8.794,9.75 8.393,9.75 C8.197,9.75 7.995,9.779 7.788,9.84 C7.583,9.903 7.405,9.96 7.259,10.016 L7.46,9.188 C7.958,8.985 8.435,8.811 8.89,8.667 C9.345,8.521 9.775,8.449 10.18,8.449 C10.911,8.449 11.475,8.627 11.872,8.979 C12.267,9.332 12.466,9.791 12.466,10.355 C12.466,10.472 12.452,10.678 12.425,10.972 C12.398,11.267 12.347,11.536 12.273,11.783 L11.516,14.463 C11.454,14.678 11.399,14.924 11.349,15.199 C11.3,15.474 11.276,15.684 11.276,15.825 C11.276,16.181 11.355,16.424 11.515,16.553 C11.673,16.682 11.95,16.747 12.342,16.747 C12.527,16.747 12.734,16.714 12.968,16.65 C13.2,16.586 13.368,16.529 13.474,16.48 L13.271,17.307 C12.663,17.547 12.179,17.729 11.816,17.855 Z" id="Path" fill="#FFFFFF"></path>
                <path d="M11.862,6.921 C11.366,6.921 10.938,6.757 10.582,6.429 C10.228,6.101 10.049,5.702 10.049,5.236 C10.049,4.771 10.229,4.371 10.582,4.04 C10.938,3.708 11.366,3.543 11.862,3.543 C12.359,3.543 12.785,3.708 13.137,4.04 C13.49,4.371 13.667,4.771 13.667,5.236 C13.667,5.703 13.49,6.101 13.137,6.429 C12.784,6.757 12.359,6.921 11.862,6.921 Z" id="Path" fill="#FFFFFF"></path>
            </g>
        </g>
    </g>
</svg>