<?xml version="1.0" encoding="UTF-8"?>
<svg width="22px" height="22px" viewBox="0 0 22 22" version="1.1" xmlns="http://www.w3.org/2000/svg" xmlns:xlink="http://www.w3.org/1999/xlink">
    <!-- Generator: Sketch 42 (36781) - http://www.bohemiancoding.com/sketch -->
    <title>Icon/Notification/Success</title>
    <desc>Created with Sketch.</desc>
    <defs></defs>
    <g id="Symbols" stroke="none" stroke-width="1" fill="none" fill-rule="evenodd">
        <g id="Icon/Notification/Success">
            <g id="Check">
                <path d="M10.8299999,0 C4.84812632,0 0,4.8466 0,10.8298667 C0,16.8102 4.84812632,21.659 10.8299999,21.659 C16.8118735,21.659 21.6599998,16.8102 21.6599998,10.8298667 C21.6592665,4.8466 16.8111402,0 10.8299999,0 L10.8299999,0 Z" id="Combined-Shape" fill="#2C913D"></path>
                <path d="M15.6116122,6.31989966 C15.4432927,6.15158011 15.1703645,6.15158011 15.0020449,6.31989966 L9.07770054,12.2443054 L6.55794286,9.72460916 C6.38968472,9.55628962 6.11672581,9.55628962 5.94843697,9.72460916 L4.52625658,11.1468203 C4.35793704,11.3151091 4.35793704,11.5880373 4.52625658,11.7563568 L8.77296295,16.0030325 C8.85712273,16.087223 8.96744234,16.1292875 9.07773125,16.1292875 C9.18805086,16.1292875 9.29837047,16.087223 9.38249954,16.0030325 L17.0337926,8.35161664 C17.1146363,8.27080361 17.1600169,8.16115948 17.1600169,8.04687905 C17.1600476,7.93253721 17.1146363,7.82295449 17.0337926,7.74211076 L15.6116122,6.31989966 Z" id="Shape" fill="#FFFFFF"></path>
            </g>
        </g>
    </g>
</svg>