<?xml version="1.0" encoding="UTF-8"?>
<svg width="22px" height="21px" viewBox="0 0 22 21" version="1.1" xmlns="http://www.w3.org/2000/svg" xmlns:xlink="http://www.w3.org/1999/xlink">
    <!-- Generator: Sketch 42 (36781) - http://www.bohemiancoding.com/sketch -->
    <title>Icon/Notification/Warning</title>
    <desc>Created with Sketch.</desc>
    <defs></defs>
    <g id="Symbols" stroke="none" stroke-width="1" fill="none" fill-rule="evenodd">
        <g id="Icon/Notification/Warning">
            <g id="Group">
                <path d="M21.8165077,18.6942727 L12.2295986,0.730954545 C11.9905532,0.281863636 11.5220986,0 11.012235,0 L11.0108713,0 C10.5010077,0 10.0339623,0.2805 9.79350771,0.729590909 L0.163780439,18.6928636 C-0.0655831975,19.124 -0.0531741065,19.6407727 0.195553166,20.0553182 C0.445644075,20.4712273 0.896144075,20.7268636 1.38114408,20.7268636 L20.5963713,20.7268636 C21.0827804,20.7268636 21.5318259,20.4725909 21.7819623,20.0553182 C22.0320532,19.6394091 22.0445077,19.1226364 21.8165077,18.6942727 L21.8165077,18.6942727 Z" id="Shape" fill="#F89F1B"></path>
                <path d="M12.3940532,12.4582273 C12.3940532,13.2223636 11.7736441,13.84 11.0122804,13.84 C10.2495077,13.84 9.63050771,13.2223182 9.63050771,12.4582273 L9.63050771,6.93104545 C9.63050771,6.16827273 10.2495532,5.54927273 11.0122804,5.54927273 C11.7736441,5.54927273 12.3940532,6.16831818 12.3940532,6.93104545 L12.3940532,12.4582273 L12.3940532,12.4582273 Z" id="Path" fill="#FFFFFF"></path>
                <path d="M11.0108713,17.9632727 C10.2480986,17.9632727 9.62909862,17.3442273 9.62909862,16.5815 C9.62909862,15.8187727 10.2481441,15.1997273 11.0108713,15.1997273 C11.772235,15.1997273 12.3926441,15.8187727 12.3926441,16.5815 C12.3926441,17.3442273 11.7736441,17.9632727 11.0108713,17.9632727 L11.0108713,17.9632727 Z" id="Path" fill="#FFFFFF"></path>
            </g>
        </g>
    </g>
</svg>